<?xml version="1.0" encoding="iso-8859-1"?>
<!-- Generator: Adobe Illustrator 25.4.0, SVG Export Plug-In . SVG Version: 6.00 Build 0)  -->
<svg version="1.1" id="Ebene_1" xmlns="http://www.w3.org/2000/svg" xmlns:xlink="http://www.w3.org/1999/xlink" x="0px" y="0px"
	 viewBox="0 0 448.9 108.842" style="enable-background:new 0 0 448.9 108.842;" xml:space="preserve">
<g>
	<path d="M81.146,75.787c0,23.973-19.802,30.374-46.305,30.374H0V2.681h30.82c28.29,0,46.008,6.848,46.008,26.652
		c0,13.251-9.529,19.653-18.909,22.036C69.384,53.751,81.146,59.26,81.146,75.787z M27.545,21.887v21.59h7.146
		c9.678,0,14.145-3.425,14.145-11.316c0-7.445-4.616-10.274-15.484-10.274H27.545z M52.708,74.149
		c0-9.381-6.104-12.954-16.229-12.954h-8.933v25.313h7.444C45.412,86.508,52.708,84.424,52.708,74.149z"/>
	<path d="M119.706,84.72h39.754l-2.978,21.441H92.161V2.681h27.545V84.72z"/>
	<path d="M253.858,54.346c0,33.651-17.42,54.496-47.496,54.496c-30.076,0-47.347-20.101-47.347-54.496
		C159.014,20.697,176.285,0,206.361,0C236.438,0,253.858,19.952,253.858,54.346z M187.601,54.346
		c0,25.014,6.253,34.692,18.76,34.692c12.954,0,18.76-9.678,18.76-34.692c0-25.013-5.955-34.542-18.76-34.542
		C193.705,19.804,187.601,29.333,187.601,54.346z"/>
	<path d="M347.507,106.161h-34.692l-26.205-77.87c1.339,9.826,3.573,23.674,3.573,42.881v34.989h-24.418V2.681h33.947l27.099,78.169
		c-1.638-10.275-3.722-23.079-3.722-40.649V2.681h24.418V106.161z"/>
	<path d="M448.9,54.049c0,41.392-24.716,52.112-52.26,52.112h-33.055V2.681h30.97C422.546,2.681,448.9,11.465,448.9,54.049z
		 M391.131,22.335v64.174h7.146c14.144,0,22.184-6.999,22.184-32.459c0-25.758-8.635-31.714-22.333-31.714H391.131z"/>
</g>
</svg>
